<svg xmlns="http://www.w3.org/2000/svg" viewBox="0 0 512 512" enable-background="new 0 0 512 512">
    <path fill="#01579b"
          d="M512 256c0-131.3-98.8-239.6-226-254.4-1.2-.1-2.4-.3-3.5-.4-.8-.1-1.5-.2-2.2-.2-1-.1-2-.2-3.1-.3-1-.1-2.1-.2-3.1-.2l-2.4-.2-5.7-.3v512l5.7-.3c.8 0 1.6-.1 2.4-.2 1-.1 2.1-.2 3.1-.2 1-.1 2-.2 3.1-.3l2.2-.2c1.2-.1 2.4-.2 3.5-.4 127.2-14.8 226-123.1 226-254.4zm-226-234.3c112.9 14.4 201 108.6 205.8 224.3h-205.8v-224.3zm0 468.6v-224.3h205.8c-4.8 115.7-92.9 209.9-205.8 224.3z"/>
</svg>